<svg width="40" height="40" viewBox="0 0 36 36" fill="none" xmlns="http://www.w3.org/2000/svg">
  <rect width="30" height="30" rx="15" fill="#2F1D74"/>
  <rect x="9.1665" y="18.3335" width="12.5" height="3.33333" fill="#6666FE"/>
  <rect x="5.8335" y="11.6665" width="3.33333" height="3.33333" fill="#6666FE"/>
  <rect x="21.6665" y="11.6665" width="3.33333" height="3.33333" fill="#6666FE"/>
  <rect x="18.3335" y="15" width="3.33333" height="3.33333" fill="#C2C2FF"/>
  <rect x="12.5" y="21.6665" width="5.83333" height="3.33333" fill="#6666FE"/>
  <rect x="9.1665" y="15" width="3.33333" height="3.33333" fill="#C2C2FF"/>
  <rect x="25" y="15" width="3.33333" height="3.33333" fill="#6666FE"/>
  <rect x="2.5" y="15" width="3.33333" height="3.33333" fill="#6666FE"/>
  <rect x="21.6665" y="18.3335" width="3.33333" height="10.8333" fill="#6666FE"/>
  <rect x="5.8335" y="18.3335" width="3.33333" height="10" fill="#6666FE"/>
  <rect x="9.1665" y="2.5" width="13.3333" height="3.33333" fill="#6666FE"/>
  <rect x="25" y="8.3335" width="3.33333" height="3.33333" fill="#C2C2FF"/>
  <rect x="18.3335" y="5.8335" width="3.33333" height="3.33333" fill="#C2C2FF"/>
  <rect x="9.1665" y="5.8335" width="3.33333" height="3.33333" fill="#C2C2FF"/>
  <rect x="2.5" y="8.3335" width="3.33333" height="3.33333" fill="#C2C2FF"/>
  <rect x="21.6665" width="3.33333" height="8.33333" fill="#6666FE"/>
  <rect x="5.8335" width="3.33333" height="8.33333" fill="#6666FE"/>
</svg>