<svg width="32" height="32" viewBox="0 0 32 32" fill="none" xmlns="http://www.w3.org/2000/svg">
<rect width="32" height="32" rx="16" fill="#2F1D74"/>
<rect x="9.14282" y="20.1143" width="13.7143" height="3.65714" fill="#6666FE"/>
<rect x="5.48572" y="12.8" width="3.65714" height="3.65714" fill="#6666FE"/>
<rect x="22.8571" y="12.8" width="3.65714" height="3.65714" fill="#6666FE"/>
<rect x="19.2" y="16.4572" width="3.65714" height="3.65714" fill="#C2C2FF"/>
<rect x="12.8" y="23.7714" width="6.4" height="3.65714" fill="#6666FE"/>
<rect x="9.14282" y="16.4572" width="3.65714" height="3.65714" fill="#C2C2FF"/>
<rect x="26.5142" y="16.4572" width="3.65714" height="3.65714" fill="#6666FE"/>
<rect x="1.82849" y="16.4572" width="3.65714" height="3.65714" fill="#6666FE"/>
<rect x="22.8571" y="20.1143" width="3.65714" height="11.8857" fill="#6666FE"/>
<rect x="5.48572" y="20.1143" width="3.65714" height="10.9714" fill="#6666FE"/>
<rect x="9.14282" y="2.74286" width="14.6286" height="3.65714" fill="#6666FE"/>
<rect x="26.5142" y="9.14288" width="3.65714" height="3.65714" fill="#C2C2FF"/>
<rect x="19.2" y="6.39999" width="3.65714" height="3.65714" fill="#C2C2FF"/>
<rect x="9.14282" y="6.39999" width="3.65714" height="3.65714" fill="#C2C2FF"/>
<rect x="1.82849" y="9.14288" width="3.65714" height="3.65714" fill="#C2C2FF"/>
<rect x="22.8571" width="3.65714" height="9.14286" fill="#6666FE"/>
<rect x="5.48572" width="3.65714" height="9.14286" fill="#6666FE"/>
</svg>