<svg width="70" height="20" viewBox="0 0 70 20" fill="none" xmlns="http://www.w3.org/2000/svg">
<g clip-path="url(#clip0_13_32393)">
<path d="M43.693 0H43.4027C39.3281 0 36.8984 2.60173 35.2428 4.85943C34.6084 5.73026 34.0171 6.64409 33.4581 7.52567C32.3938 9.20282 31.3832 10.7725 30.1898 11.9121C28.9319 13.1162 27.3516 13.7612 25.6206 13.7612C24.2123 13.7182 22.9007 13.1269 21.9223 12.1056C20.944 11.0842 20.4064 9.72961 20.4064 8.29974C20.4064 6.86986 20.9977 5.42923 22.0083 4.40789C23.0297 3.3758 24.395 2.806 25.8464 2.806H25.8572C26.4485 2.806 27.1365 2.92426 27.8138 3.13928C27.9429 3.18228 28.0504 3.27904 28.0934 3.4188C28.1364 3.55857 28.1149 3.70908 28.0289 3.82734L24.5026 8.92329C24.395 9.0738 24.3843 9.26732 24.4703 9.42859C24.5563 9.58985 24.7176 9.68661 24.9003 9.68661H26.9C27.1688 9.68661 27.4268 9.5576 27.5773 9.33183L31.2111 4.04236C31.3617 3.83809 31.4477 3.60157 31.5014 3.34355C31.5444 3.09627 31.5444 2.83825 31.5014 2.59098C31.4477 2.34371 31.3402 2.10719 31.2004 1.90292C31.0499 1.69865 30.8671 1.52664 30.6521 1.38687C30.5016 1.30087 30.3511 1.21486 30.1898 1.12885C28.8567 0.397785 27.3408 0.010751 25.8249 0.010751C23.6425 0.010751 21.589 0.870827 20.0409 2.42972C18.5143 3.9671 17.6327 6.09579 17.6327 8.28899C17.6327 10.4822 18.439 12.4819 19.9226 14.03C21.4063 15.5889 23.3952 16.4812 25.5346 16.5457C27.8353 16.5457 29.8673 15.7501 31.7379 14.1053C33.4043 12.6431 34.6837 10.7295 35.7588 9.06305C36.5866 7.76219 37.3714 6.53658 38.2315 5.52599C38.5325 5.17121 38.8228 4.85943 39.1131 4.59066C40.414 3.3758 41.7793 2.806 43.4135 2.806H43.6177C45.0261 2.849 46.3377 3.42955 47.3161 4.46165C48.1546 5.34322 48.6922 6.51508 48.8105 7.74069C48.832 7.92345 48.8427 8.10622 48.8427 8.28899C48.8427 9.75111 48.2729 11.1272 47.2408 12.1593C46.2195 13.1914 44.8541 13.7612 43.4027 13.7612H43.392C42.6394 13.7612 41.9191 13.5785 41.4353 13.4279C41.3063 13.3849 41.1988 13.2882 41.1558 13.1484C41.1128 13.0087 41.1343 12.8581 41.2203 12.7291L44.7358 7.68693C44.8434 7.53642 44.8541 7.3429 44.7681 7.18164C44.6821 7.00962 44.5208 6.92361 44.3381 6.92361H42.3384C42.0696 6.92361 41.8223 7.05263 41.6611 7.2784L38.0273 12.5141C37.8767 12.7291 37.7907 12.9549 37.737 13.2129C37.694 13.4602 37.694 13.7182 37.737 13.9655C37.7907 14.2128 37.8982 14.4493 38.038 14.6536C38.1778 14.8578 38.382 15.0406 38.5971 15.1696C38.7476 15.2556 38.8873 15.3416 39.0378 15.4276C40.371 16.1587 41.8868 16.5457 43.4027 16.5457C45.5959 16.5457 47.6494 15.6856 49.1975 14.1268C50.7456 12.5679 51.6057 10.5037 51.6057 8.29974C51.6057 6.09579 50.7779 4.04236 49.305 2.51572C47.8214 0.956835 45.8324 0.0645057 43.693 0Z" fill="#0E0D0C"/>
<path d="M66.5832 0.281172L66.1112 1.53903C66.0736 1.64009 65.95 1.6745 65.8629 1.61107C64.4824 0.594025 62.7752 -0.00695329 60.926 0.00164748C56.473 0.0220743 52.7962 3.62902 52.6951 8.08099C52.5897 12.7372 56.3321 16.5452 60.9647 16.5452C62.9945 16.5452 64.8523 15.8131 66.2918 14.6004C66.3628 14.5412 66.4692 14.5896 66.4692 14.681V19.5695C66.4692 19.8071 66.6617 19.9995 66.8993 19.9995H68.8065C69.0441 19.9995 69.2365 19.8071 69.2365 19.5695V0.433836C69.2365 0.19624 69.0441 0.00379767 68.8065 0.00379767H66.9842C66.8047 0.00272257 66.6445 0.113457 66.581 0.282247L66.5832 0.281172ZM61.3249 13.7672C58.0071 13.979 55.2603 11.2321 55.4721 7.91435C55.6473 5.17178 57.8631 2.95601 60.6057 2.78077C63.9234 2.56898 66.6713 5.31584 66.4585 8.63359C66.2832 11.3762 64.0675 13.5919 61.3249 13.7672Z" fill="#0E0D0C"/>
<path d="M2.25239 0.00272273H0.430099C0.192503 0.00379783 6.10352e-05 0.19624 6.10352e-05 0.433836V19.5705C6.10352e-05 19.8081 0.192503 20.0006 0.430099 20.0006H2.33732C2.57491 20.0006 2.76736 19.8081 2.76736 19.5705V14.6821C2.76736 14.5896 2.87487 14.5412 2.94475 14.6014C4.3843 15.8142 6.24207 16.5463 8.27185 16.5463C12.9044 16.5463 16.6468 12.7383 16.5415 8.08207C16.4415 3.6301 12.7647 0.0231495 8.31162 0.00164764C6.46246 -0.00695313 4.75521 0.59295 3.37479 1.61107C3.2877 1.67557 3.16407 1.64009 3.12644 1.53903L2.65447 0.281172C2.59212 0.113458 2.43085 0.00164764 2.25239 0.00272273ZM2.77918 8.63359C2.56739 5.31585 5.31426 2.5679 8.632 2.78077C11.3746 2.95601 13.5903 5.17178 13.7656 7.91435C13.9774 11.2321 11.2305 13.979 7.91276 13.7672C5.1702 13.5919 2.95442 11.3762 2.77918 8.63359Z" fill="#0E0D0C"/>
</g>
<defs>
<clipPath id="clip0_13_32393">
<rect width="69.2372" height="20" fill="white"/>
</clipPath>
</defs>
</svg>
