<svg width="36" height="37" viewBox="0 0 36 37" fill="none" xmlns="http://www.w3.org/2000/svg">
<rect x="0.5" y="1" width="35" height="35" rx="17.5" fill="#F8F7F6"/>
<rect x="0.5" y="1" width="35" height="35" rx="17.5" stroke="#EBE9E8"/>
<path d="M23.6097 13.5C23.5483 13.5 23.4869 13.5 23.4284 13.5C20.9072 13.5 19.4097 15.0683 18.3861 16.4324C17.9941 16.9561 17.6315 17.5086 17.2805 18.0439C16.6195 19.054 15.9965 20.0065 15.2624 20.6942C14.4844 21.4223 13.5075 21.8079 12.4371 21.8079C11.5655 21.7849 10.7524 21.4281 10.1499 20.8065C9.54444 20.1878 9.21101 19.3734 9.21101 18.5101C9.21394 17.6324 9.57369 16.7748 10.1996 16.1619C10.8343 15.5374 11.6766 15.195 12.5716 15.1921H12.5774C12.9401 15.1921 13.3701 15.264 13.7883 15.3964C13.8702 15.4223 13.9345 15.4827 13.9638 15.5662C13.993 15.6496 13.9784 15.7417 13.9258 15.8137L11.7468 18.8928C11.6825 18.9849 11.6766 19.1 11.7293 19.1978C11.7819 19.2957 11.8813 19.3561 11.9925 19.3561H13.2297C13.3964 19.3561 13.5543 19.2755 13.6479 19.1403L15.8971 15.9432C15.9877 15.8165 16.0462 15.6755 16.0784 15.523C16.1077 15.3705 16.1077 15.218 16.0755 15.0683C16.0433 14.9158 15.979 14.7777 15.8883 14.6511C15.7976 14.5245 15.6836 14.4209 15.549 14.3403C15.4584 14.2856 15.3648 14.2338 15.2653 14.182C14.4405 13.7417 13.5075 13.5086 12.5687 13.5086C11.2174 13.5086 9.94806 14.0295 8.99165 14.9705C8.04987 15.8971 7.50586 17.1863 7.50001 18.5101C7.49709 19.8108 8.00015 21.0424 8.91853 21.9777C9.83399 22.9187 11.0653 23.4597 12.3873 23.4942C13.8088 23.4942 15.0635 23.0108 16.2217 22.0209C17.2542 21.1345 18.0439 19.9835 18.7049 18.9763C19.2196 18.1906 19.7022 17.4511 20.2316 16.8381C20.4159 16.6223 20.5943 16.4381 20.7756 16.2712C21.577 15.5345 22.4223 15.1921 23.4343 15.1921C23.4781 15.1921 23.5191 15.1921 23.5629 15.1921C24.4345 15.2151 25.2476 15.5719 25.8501 16.1935C26.3707 16.7259 26.6983 17.4309 26.7744 18.1763C26.7861 18.2856 26.7919 18.3978 26.7919 18.5072C26.789 19.3906 26.438 20.2194 25.8033 20.8439C25.1687 21.4683 24.3263 21.8108 23.4313 21.8137H23.4255C22.9634 21.8137 22.5129 21.7043 22.2175 21.6122C22.1356 21.5863 22.0713 21.5259 22.0421 21.4424C22.0128 21.359 22.0274 21.2669 22.0801 21.1921L24.2503 18.1475C24.3146 18.0554 24.3234 17.9403 24.2707 17.8424C24.2181 17.7417 24.1187 17.6842 24.0046 17.6842H22.7703C22.6036 17.6842 22.4486 17.7647 22.3521 17.9L20.1058 21.0655C20.0152 21.1921 19.9567 21.3331 19.9245 21.4856C19.8953 21.6381 19.8953 21.7906 19.9274 21.9403C19.9596 22.0928 20.024 22.2309 20.1146 22.3576C20.2024 22.4784 20.3252 22.5906 20.4597 22.6712C20.5533 22.7259 20.6411 22.7777 20.7347 22.8266C21.5595 23.2669 22.4925 23.5 23.4313 23.5C24.7855 23.5 26.0549 22.9791 27.0113 22.0381C27.9677 21.0971 28.4971 19.8482 28.5 18.5158C28.5029 17.2209 27.9852 15.946 27.0785 15.0223C26.1631 14.0784 24.9317 13.5403 23.6097 13.5Z" fill="#6666FE"/>
</svg>