<svg width="24" height="24" viewBox="0 0 24 24" fill="none" xmlns="http://www.w3.org/2000/svg">
<rect width="24" height="24" rx="12" fill="#0F0E0D"/>
<path d="M15.7435 8.57129C15.7025 8.57129 15.6615 8.57129 15.6225 8.57129C13.9402 8.57129 12.941 9.64673 12.258 10.5821C11.9964 10.9412 11.7545 11.3201 11.5203 11.6871C11.0792 12.3797 10.6635 13.0329 10.1737 13.5045C9.65454 14.0037 9.00271 14.2681 8.28843 14.2681C7.70686 14.2524 7.16431 14.0077 6.76229 13.5814C6.35831 13.1572 6.13583 12.5988 6.13583 12.0068C6.13778 11.4049 6.37783 10.8169 6.79547 10.3966C7.21896 9.96837 7.78102 9.73355 8.3782 9.73158H8.38211C8.6241 9.73158 8.91099 9.78091 9.19006 9.87168C9.24471 9.88944 9.28764 9.93088 9.30716 9.9881C9.32668 10.0453 9.31692 10.1085 9.28179 10.1578L7.82786 12.2692C7.78492 12.3324 7.78102 12.4113 7.81615 12.4784C7.85127 12.5455 7.91763 12.5869 7.99179 12.5869H8.81731C8.92855 12.5869 9.03394 12.5317 9.09639 12.4389L10.5972 10.2466C10.6577 10.1598 10.6967 10.0631 10.7182 9.9585C10.7377 9.85392 10.7377 9.74934 10.7162 9.64673C10.6947 9.54214 10.6518 9.44742 10.5913 9.3606C10.5308 9.27378 10.4547 9.20274 10.3649 9.14749C10.3044 9.10999 10.242 9.07448 10.1756 9.03896C9.62527 8.73704 9.00271 8.57721 8.37625 8.57721C7.47462 8.57721 6.62763 8.93437 5.98946 9.57963C5.36105 10.215 4.99805 11.0991 4.99415 12.0068C4.9922 12.8987 5.32787 13.7433 5.94067 14.3846C6.55152 15.0298 7.37314 15.4008 8.25525 15.4245C9.20373 15.4245 10.041 15.093 10.8138 14.4142C11.5027 13.8064 12.0296 13.0171 12.4707 12.3264C12.8142 11.7877 13.1362 11.2806 13.4894 10.8603C13.6124 10.7123 13.7314 10.586 13.8524 10.4716C14.3871 9.9664 14.9512 9.73158 15.6264 9.73158C15.6557 9.73158 15.683 9.73158 15.7123 9.73158C16.2938 9.74736 16.8364 9.99205 17.2384 10.4183C17.5858 10.7833 17.8044 11.2668 17.8551 11.7779C17.8629 11.8529 17.8668 11.9298 17.8668 12.0048C17.8649 12.6106 17.6307 13.1789 17.2072 13.6071C16.7837 14.0353 16.2216 14.2701 15.6245 14.2721H15.6205C15.3122 14.2721 15.0117 14.1971 14.8145 14.134C14.7599 14.1162 14.717 14.0748 14.6974 14.0175C14.6779 13.9603 14.6877 13.8972 14.7228 13.8459L16.1709 11.7581C16.2138 11.695 16.2197 11.6161 16.1846 11.549C16.1494 11.4799 16.0831 11.4404 16.007 11.4404H15.1834C15.0722 11.4404 14.9687 11.4957 14.9043 11.5884L13.4055 13.759C13.345 13.8459 13.306 13.9426 13.2845 14.0471C13.265 14.1517 13.265 14.2563 13.2864 14.3589C13.3079 14.4635 13.3509 14.5582 13.4114 14.645C13.4699 14.7279 13.5519 14.8049 13.6416 14.8601C13.7041 14.8976 13.7626 14.9331 13.8251 14.9667C14.3754 15.2686 14.998 15.4284 15.6245 15.4284C16.528 15.4284 17.375 15.0713 18.0132 14.426C18.6514 13.7807 19.0046 12.9243 19.0066 12.0107C19.0085 11.1227 18.6631 10.2486 18.0581 9.61515C17.4472 8.96792 16.6256 8.59891 15.7435 8.57129Z" fill="#6666FE"/>
</svg>
