<svg width="38" height="18" viewBox="0 0 38 18" fill="none" xmlns="http://www.w3.org/2000/svg">
<path d="M28.8257 0C28.7181 0 28.6105 0 28.5081 0C24.0921 0 21.4692 2.82302 19.6762 5.27827C18.9897 6.22101 18.3545 7.21554 17.7397 8.17899C16.5819 9.99712 15.4907 11.7117 14.2049 12.9496C12.8422 14.2601 11.1311 14.9542 9.25615 14.9542C7.72952 14.9128 6.30535 14.2705 5.25003 13.1517C4.18958 12.038 3.60557 10.5721 3.60557 9.01813C3.61069 7.43827 4.24081 5.89468 5.33712 4.79137C6.44879 3.66734 7.92419 3.05094 9.49181 3.04576H9.50205C10.1373 3.04576 10.8904 3.17525 11.6229 3.41353C11.7664 3.46014 11.8791 3.56892 11.9303 3.71914C11.9815 3.86935 11.9559 4.03511 11.8637 4.1646L8.04714 9.70705C7.93444 9.8728 7.92419 10.08 8.01641 10.2561C8.10862 10.4322 8.2828 10.541 8.47747 10.541H10.6445C10.9365 10.541 11.2131 10.396 11.377 10.1525L15.3166 4.3977C15.4754 4.16978 15.5778 3.91597 15.6342 3.64144C15.6854 3.36691 15.6854 3.09237 15.6291 2.82302C15.5727 2.54849 15.46 2.29986 15.3012 2.07194C15.1424 1.84403 14.9426 1.65755 14.7069 1.51252C14.5481 1.4141 14.3842 1.32086 14.21 1.22763C12.7654 0.435108 11.1311 0.0155396 9.48668 0.0155396C7.11989 0.0155396 4.89655 0.953094 3.22135 2.64691C1.57177 4.31482 0.618911 6.6354 0.608665 9.01813C0.603542 11.3594 1.48468 13.5764 3.09328 15.2599C4.69675 16.9537 6.8535 17.9275 9.16906 17.9896C11.6588 17.9896 13.8565 17.1194 15.8852 15.3376C17.6936 13.7422 19.0768 11.6702 20.2346 9.85727C21.1362 8.44317 21.9815 7.11194 22.9087 6.00863C23.2315 5.62014 23.544 5.28863 23.8616 4.9882C25.2653 3.66216 26.7458 3.04576 28.5183 3.04576C28.5952 3.04576 28.6669 3.04576 28.7437 3.04576C30.2704 3.08719 31.6945 3.7295 32.7499 4.84834C33.6617 5.80662 34.2355 7.07568 34.3687 8.41727C34.3892 8.6141 34.3994 8.81611 34.3994 9.01295C34.3943 10.6032 33.7796 12.095 32.6679 13.219C31.5562 14.343 30.0808 14.9594 28.5132 14.9646H28.503C27.6935 14.9646 26.9046 14.7678 26.3872 14.602C26.2438 14.5554 26.131 14.4466 26.0798 14.2964C26.0286 14.1462 26.0542 13.9804 26.1464 13.8458L29.9476 8.36547C30.0603 8.19971 30.0757 7.99252 29.9835 7.8164C29.8913 7.63511 29.7171 7.53151 29.5173 7.53151H27.3554C27.0634 7.53151 26.7919 7.67655 26.6228 7.92L22.6884 13.6178C22.5296 13.8458 22.4272 14.0996 22.3708 14.3741C22.3196 14.6486 22.3196 14.9232 22.3759 15.1925C22.4323 15.467 22.545 15.7157 22.7038 15.9436C22.8575 16.1611 23.0727 16.3632 23.3083 16.5082C23.4723 16.6066 23.6259 16.6999 23.7899 16.7879C25.2345 17.5804 26.8687 18 28.5132 18C30.8851 18 33.1085 17.0624 34.7837 15.3686C36.4589 13.6748 37.3861 11.4268 37.3912 9.02849C37.3964 6.69755 36.4896 4.40288 34.9015 2.74014C33.298 1.04115 31.1413 0.072518 28.8257 0Z" fill="#6666FE"/>
</svg>
