<svg className='svg-hover' width="18" height="18" viewBox="0 0 18 18" fill="none" xmlns="http://www.w3.org/2000/svg">
<path d="M8.99173 13.2115C9.20588 13.2115 9.38676 13.1376 9.53436 12.9897C9.68194 12.8418 9.75574 12.6608 9.75574 12.4467C9.75574 12.2325 9.68181 12.0517 9.53394 11.9041C9.38608 11.7565 9.20508 11.6827 8.99093 11.6827C8.77678 11.6827 8.59591 11.7566 8.44832 11.9045C8.30072 12.0523 8.22692 12.2333 8.22692 12.4475C8.22692 12.6616 8.30085 12.8425 8.44871 12.9901C8.59658 13.1377 8.77758 13.2115 8.99173 13.2115ZM8.46056 10.5259H9.51632C9.52593 10.1567 9.58002 9.86176 9.67858 9.64108C9.77713 9.42042 10.0163 9.12788 10.3961 8.76345C10.7259 8.43364 10.9786 8.12907 11.1541 7.84974C11.3295 7.57042 11.4173 7.24055 11.4173 6.86014C11.4173 6.2146 11.1853 5.71034 10.7214 5.34735C10.2574 4.98438 9.70864 4.80289 9.07498 4.80289C8.44903 4.80289 7.93101 4.96996 7.52091 5.30409C7.11082 5.63822 6.81828 6.03172 6.64328 6.48459L7.60671 6.87113C7.69806 6.62209 7.85431 6.37954 8.07546 6.14349C8.29662 5.90743 8.62499 5.7894 9.06056 5.7894C9.50384 5.7894 9.83148 5.9108 10.0435 6.1536C10.2555 6.39639 10.3615 6.66346 10.3615 6.95481C10.3615 7.20961 10.2889 7.44278 10.1437 7.65431C9.99854 7.86585 9.81345 8.07018 9.58845 8.26731C9.09615 8.71153 8.78509 9.06586 8.65528 9.33028C8.52547 9.59471 8.46056 9.99326 8.46056 10.5259ZM9.00124 16.125C8.01579 16.125 7.08951 15.938 6.22241 15.564C5.3553 15.19 4.60104 14.6824 3.95963 14.0413C3.3182 13.4001 2.81041 12.6462 2.43624 11.7795C2.06208 10.9128 1.875 9.98669 1.875 9.00124C1.875 8.01579 2.062 7.08951 2.436 6.22241C2.81 5.3553 3.31756 4.60104 3.95869 3.95963C4.59983 3.3182 5.35376 2.81041 6.22048 2.43624C7.08719 2.06208 8.01328 1.875 8.99873 1.875C9.98418 1.875 10.9105 2.062 11.7776 2.436C12.6447 2.81 13.3989 3.31756 14.0403 3.95869C14.6818 4.59983 15.1896 5.35376 15.5637 6.22048C15.9379 7.08719 16.125 8.01328 16.125 8.99873C16.125 9.98418 15.938 10.9104 15.564 11.7776C15.19 12.6447 14.6824 13.3989 14.0413 14.0403C13.4001 14.6818 12.6462 15.1896 11.7795 15.5637C10.9128 15.9379 9.98669 16.125 9.00124 16.125ZM8.99998 15C10.675 15 12.0937 14.4187 13.2562 13.2562C14.4187 12.0937 15 10.675 15 8.99998C15 7.32498 14.4187 5.90623 13.2562 4.74373C12.0937 3.58123 10.675 2.99998 8.99998 2.99998C7.32498 2.99998 5.90623 3.58123 4.74373 4.74373C3.58123 5.90623 2.99998 7.32498 2.99998 8.99998C2.99998 10.675 3.58123 12.0937 4.74373 13.2562C5.90623 14.4187 7.32498 15 8.99998 15Z" fill="#6666FE"/>
</svg>
